<svg xmlns="http://www.w3.org/2000/svg" viewBox="0 0 32 32" fill="none">
  <!-- Cowboy Hat -->
  <path d="M6 13 C6 13 8 5 12 7 C13 7.5 14.5 4 16 4 C17.5 4 19 7.5 20 7 C24 5 26 13 26 13" fill="#d97706" />
  <ellipse cx="16" cy="13" rx="12" ry="2.5" fill="#92400e" />
  <!-- Hat band detail -->
  <rect x="10" y="12" width="12" height="1.5" rx="0.75" fill="#78350f" />
  <circle cx="16" cy="12.75" r="0.8" fill="#fbbf24" />

  <!-- Owl Head -->
  <ellipse cx="16" cy="20" rx="9" ry="8" fill="#a855f7" />
  <!-- Ear tufts -->
  <path d="M8.5 14.5 L7 10.5 L10.5 14" fill="#a855f7" />
  <path d="M23.5 14.5 L25 10.5 L21.5 14" fill="#a855f7" />

  <!-- Eye rings -->
  <circle cx="12.5" cy="19" r="4" fill="#f5f3ff" />
  <circle cx="19.5" cy="19" r="4" fill="#f5f3ff" />
  <!-- Eyes -->
  <circle cx="12.5" cy="19" r="2.5" fill="#fbbf24" />
  <circle cx="19.5" cy="19" r="2.5" fill="#fbbf24" />
  <!-- Pupils -->
  <circle cx="13" cy="18.5" r="1.5" fill="#1c1917" />
  <circle cx="20" cy="18.5" r="1.5" fill="#1c1917" />
  <!-- Eye shine -->
  <circle cx="13.5" cy="18" r="0.6" fill="white" />
  <circle cx="20.5" cy="18" r="0.6" fill="white" />

  <!-- Beak -->
  <path d="M15 22 L16 24.5 L17 22 Z" fill="#d97706" />

  <!-- Magnifying Glass (bottom-right) -->
  <circle cx="25" cy="26" r="3.5" stroke="#c084fc" stroke-width="1.5" fill="none" />
  <circle cx="25" cy="26" r="2.2" fill="#c084fc" fill-opacity="0.15" />
  <line x1="27.5" y1="28.5" x2="30" y2="31" stroke="#c084fc" stroke-width="1.5" stroke-linecap="round" />
</svg>
